<!-- Generated by IcoMoon.io -->
<svg version="1.1" xmlns="http://www.w3.org/2000/svg" width="20" height="20" viewBox="0 0 20 20">
<title>cloud</title>
<path d="M3.813 10.064c-1.11 0.256-1.938 1.252-1.938 2.436 0 1.381 1.124 2.5 2.502 2.5h10.621c1.382 0 2.502-1.122 2.502-2.5 0-1.167-0.803-2.148-1.885-2.423v0c-0.12-1.443-1.329-2.577-2.803-2.577-0.673 0-1.29 0.236-1.774 0.63-0.513-1.459-1.904-2.505-3.538-2.505-2.071 0-3.75 1.679-3.75 3.75 0 0.235 0.022 0.466 0.063 0.689v0zM16.177 9.603c1.144 0.464 1.948 1.586 1.948 2.897 0 1.722-1.399 3.125-3.125 3.125h-10.626c-1.729 0-3.125-1.399-3.125-3.125 0-1.282 0.775-2.387 1.882-2.868v0c-0.005-0.085-0.007-0.171-0.007-0.257 0-2.416 1.959-4.375 4.375-4.375 1.633 0 3.057 0.895 3.809 2.221 0.454-0.221 0.965-0.346 1.504-0.346 1.655 0 3.038 1.17 3.364 2.728v0 0z"></path>
</svg>
