<!-- Generated by IcoMoon.io -->
<svg version="1.1" xmlns="http://www.w3.org/2000/svg" width="20" height="20" viewBox="0 0 20 20">
<title>note-important</title>
<path d="M3.75 6.875v9.376c0 0.35 0.282 0.624 0.63 0.624h8.745v-3.121c0-0.7 0.559-1.254 1.249-1.254h2.501v-5.625h-13.125zM3.75 6.25h13.125v-1.871c0-0.348-0.279-0.629-0.624-0.629h-11.877c-0.35 0-0.624 0.279-0.624 0.624v1.876zM13.438 17.5h-9.062c-0.69 0-1.25-0.564-1.25-1.251v-11.874c0-0.691 0.564-1.251 1.251-1.251h11.874c0.691 0 1.251 0.559 1.251 1.246v8.754l-3.75 4.375h-0.313zM13.75 16.563l2.937-3.438h-2.315c-0.341 0-0.623 0.282-0.623 0.63v2.807zM9.375 8.125h1.875v5h-1.875v-5zM10 8.75v3.75h0.625v-3.75h-0.625zM9.375 13.75h1.875v1.875h-1.875v-1.875zM10 14.375v0.625h0.625v-0.625h-0.625z"></path>
</svg>
