<!-- Generated by IcoMoon.io -->
<svg version="1.1" xmlns="http://www.w3.org/2000/svg" width="22" height="20" viewBox="0 0 22 20">
<title>puzzle</title>
<path d="M12.526 2.442c0-1.216-0.974-2.442-3.151-2.442-1.917 0-3.206 0.981-3.206 2.442 0 0.853 0.345 1.241 0.573 1.499 0.121 0.136 0.169 0.197 0.169 0.258 0 0.101 0 0.162-0.349 0.176h-3.811c-1.466 0-2.752 1.168-2.752 2.5v2.332c0.024 0.59 0.357 0.957 0.87 0.957 0.292 0 0.508-0.167 0.718-0.329 0.281-0.216 0.599-0.461 1.224-0.461 1.060 0 2.187 0.876 2.187 2.5 0 1.643-1.142 2.789-2.168 2.789-0.619 0-0.943-0.268-1.229-0.504-0.214-0.177-0.436-0.361-0.734-0.361-0.512 0-0.846 0.367-0.87 0.969v2.564c0.001 1.397 1.313 2.669 2.753 2.669h3.831c0.58-0.024 0.954-0.366 0.954-0.873 0-0.304-0.173-0.5-0.326-0.672-0.205-0.231-0.416-0.469-0.416-1.084 0-1.104 1.002-1.817 2.553-1.817s2.554 0.713 2.554 1.817c0 0.615-0.212 0.853-0.416 1.084-0.153 0.172-0.327 0.368-0.327 0.672 0 0.514 0.366 0.848 0.968 0.872l2.463 0.001c1.345 0 2.285-1.048 2.285-2.549v-2.906c0.016-0.076 0.209-0.367 0.502-0.367 0.060 0 0.121 0.049 0.256 0.169 0.256 0.229 0.644 0.576 1.496 0.576 1.365-0.001 2.748-1.047 2.748-3.048 0-2.159-1.256-3.125-2.5-3.125-0.84 0-1.325 0.384-1.646 0.637-0.142 0.113-0.276 0.219-0.352 0.219-0.294 0-0.487-0.293-0.501-0.357-0.001-0.005-0.001-0.010-0.001-0.015v-2.239c0-1.518-0.961-2.62-2.285-2.62h-2.451c-0.008-0.001-0.016-0.001-0.025-0.002-0.33-0.012-0.33-0.073-0.33-0.174 0-0.061 0.049-0.122 0.169-0.258 0.228-0.257 0.574-0.646 0.574-1.499zM11.485 3.526c-0.153 0.172-0.327 0.369-0.327 0.673 0 0.344 0.157 0.758 0.919 0.798 0.014 0.002 0.029 0.002 0.044 0.002h2.467c1.090 0 1.661 1.004 1.661 1.995v2.271c0 0.022-0.004 0.044 0 0.066 0.057 0.382 0.526 0.899 1.126 0.899 0.294 0 0.51-0.171 0.741-0.353 0.297-0.236 0.636-0.502 1.258-0.502 1.139 0 1.875 0.981 1.875 2.5 0 1.665-1.101 2.423-2.123 2.423-0.612 0-0.849-0.212-1.079-0.417-0.172-0.154-0.368-0.328-0.672-0.328-0.6 0-1.069 0.518-1.126 0.9-0.004 0.021 0 0.043 0 0.066v2.934c0 0.957-0.514 1.923-1.661 1.923h-2.451c-0.355-0.014-0.355-0.178-0.355-0.248 0-0.061 0.049-0.122 0.169-0.258 0.228-0.257 0.574-0.646 0.574-1.499 0-1.216-0.982-2.442-3.179-2.442-1.901 0-3.178 0.981-3.178 2.442 0 0.852 0.345 1.241 0.574 1.499 0.12 0.136 0.169 0.197 0.169 0.258 0 0.070 0 0.234-0.343 0.248h-3.818c-1.073 0-2.127-1.012-2.127-2.044v-2.551c0.014-0.357 0.176-0.357 0.245-0.357 0.073 0 0.2 0.106 0.336 0.217 0.311 0.258 0.783 0.648 1.627 0.648 1.348 0 2.793-1.372 2.793-3.414 0-2.030-1.449-3.125-2.813-3.125-0.838 0-1.299 0.355-1.605 0.591-0.139 0.107-0.259 0.199-0.338 0.199-0.069 0-0.231 0-0.245-0.344v-2.32c0-1.105 1.121-1.875 2.127-1.875h3.822c0.010 0 0.019-0.001 0.029-0.001v0c0.772-0.029 0.934-0.451 0.934-0.8 0-0.304-0.173-0.5-0.326-0.673-0.205-0.231-0.416-0.469-0.416-1.084 0-1.087 1.037-1.817 2.581-1.817 1.534 0 2.526 0.713 2.526 1.817 0 0.615-0.212 0.854-0.416 1.084z"></path>
</svg>
